<svg height="33.22" viewBox="0 0 53.151 33.22" width="53.151" xmlns="http://www.w3.org/2000/svg"><g fill="#55bcd8"><path d="m12.692 5.177-11.416 3.011a1.687 1.687 0 0 0 -1.276 1.612v23.443a1.687 1.687 0 0 0 1.276 1.616l11.416 3.011z" opacity=".516" transform="translate(0 -4.914)"/><path d="m42.509 8.279-35.509-3.216v33.22l35.509-3.216a1.658 1.658 0 0 0 1.491-1.667v-23.453a1.658 1.658 0 0 0 -1.489-1.668zm-27.892 21.769a1.633 1.633 0 1 1 -3.265 0v-16.748a1.633 1.633 0 1 1 3.265 0zm8.705-1.117a1.633 1.633 0 1 1 -3.265 0v-14.517a1.633 1.633 0 1 1 3.265 0zm8.705-1.117a1.633 1.633 0 1 1 -3.265 0v-12.283a1.633 1.633 0 1 1 3.265 0zm7.617-.558a1.633 1.633 0 1 1 -3.265 0v-10.608a1.633 1.633 0 1 1 3.265 0z" transform="translate(9.153 -5.063)"/></g></svg>