<svg xmlns="http://www.w3.org/2000/svg" xmlns:xlink="http://www.w3.org/1999/xlink" width="80" height="80"
    viewBox="0 0 80 80">
    <defs>
        <style>
            .c {
                fill: #ffffff00;
            }


            .e {
                opacity: 0.06;
            }
        </style>


    </defs>
    <g transform="translate(-31.181 -143.367)">
        <g class="b" transform="translate(31.138 143.367)">

            <path class="e"
                d="M655.523-1030.633a18.334,18.334,0,0,1,18.314-18.314,18.449,18.449,0,0,1,4.644.591,2.2,2.2,0,0,1,1.575,2.679,2.2,2.2,0,0,1-2.679,1.575,14.133,14.133,0,0,0-3.539-.451,13.937,13.937,0,0,0-13.92,13.92,13.937,13.937,0,0,0,13.92,13.92,13.937,13.937,0,0,0,13.92-13.92,14.253,14.253,0,0,0-.245-2.627,2.2,2.2,0,0,1,1.754-2.566,2.2,2.2,0,0,1,2.566,1.754,18.655,18.655,0,0,1,.322,3.439,18.339,18.339,0,0,1-18.316,18.316A18.336,18.336,0,0,1,655.523-1030.633Zm15.579,6.49-5.9-5.889a2.2,2.2,0,0,1,0-3.11,2.2,2.2,0,0,1,3.107,0l4.133,4.125,16.439-21.333a2.2,2.2,0,0,1,3.083-.4,2.2,2.2,0,0,1,.4,3.083L674.4-1024.356a2.21,2.21,0,0,1-1.6.852c-.047,0-.095.005-.143.005A2.2,2.2,0,0,1,671.1-1024.143Z"
                transform="translate(-634.127 1071.764)" />
        </g>
    </g>
</svg>